G04 #@! TF.FileFunction,Copper,L1,Top,Signal*
%FSLAX46Y46*%
G04 Gerber Fmt 4.6, Leading zero omitted, Abs format (unit mm)*
G04 Created by KiCad (PCBNEW 4.0.7) date Tuesday, June 26, 2018 'PMt' 08:38:01 PM*
%MOMM*%
%LPD*%
G01*
G04 APERTURE LIST*
%ADD10C,0.100000*%
%ADD11R,1.700000X1.700000*%
%ADD12O,1.700000X1.700000*%
%ADD13C,1.524000*%
%ADD14R,2.000000X2.000000*%
%ADD15C,2.000000*%
%ADD16C,0.250000*%
%ADD17C,0.508000*%
%ADD18C,0.381000*%
%ADD19C,0.254000*%
G04 APERTURE END LIST*
D10*
D11*
X140970000Y-111760000D03*
D12*
X140970000Y-114300000D03*
X140970000Y-116840000D03*
X140970000Y-119380000D03*
X140970000Y-121920000D03*
X140970000Y-124460000D03*
X140970000Y-127000000D03*
X140970000Y-129540000D03*
D13*
X133985000Y-122555000D03*
X133985000Y-120015000D03*
X133985000Y-117475000D03*
X133985000Y-125095000D03*
X131445000Y-117475000D03*
X131445000Y-120015000D03*
X131445000Y-122555000D03*
X131445000Y-125095000D03*
D14*
X127254000Y-132588000D03*
D15*
X132254000Y-132588000D03*
D16*
X133985000Y-122555000D02*
X133604000Y-122555000D01*
X133604000Y-122555000D02*
X132334000Y-121285000D01*
X132334000Y-121285000D02*
X130492500Y-121285000D01*
X130492500Y-121285000D02*
X129667000Y-120459500D01*
X129667000Y-120459500D02*
X129667000Y-115125500D01*
X129667000Y-115125500D02*
X130492500Y-114300000D01*
X130492500Y-114300000D02*
X140970000Y-114300000D01*
X133985000Y-120015000D02*
X133985000Y-119951500D01*
X133985000Y-119951500D02*
X132715000Y-118681500D01*
X132715000Y-118681500D02*
X132715000Y-116141500D01*
X132715000Y-116141500D02*
X132969000Y-115887500D01*
X132969000Y-115887500D02*
X136906000Y-115887500D01*
X136906000Y-115887500D02*
X137795000Y-116776500D01*
X137795000Y-116776500D02*
X140906500Y-116776500D01*
X140906500Y-116776500D02*
X140970000Y-116840000D01*
X133985000Y-117475000D02*
X137033000Y-117475000D01*
X140081000Y-119380000D02*
X140970000Y-119380000D01*
X138747500Y-118046500D02*
X140081000Y-119380000D01*
X137604500Y-118046500D02*
X138747500Y-118046500D01*
X137033000Y-117475000D02*
X137604500Y-118046500D01*
X131445000Y-117475000D02*
X131445000Y-115697000D01*
X142748000Y-120142000D02*
X140970000Y-121920000D01*
X142748000Y-116078000D02*
X142748000Y-120142000D01*
X142303500Y-115633500D02*
X142748000Y-116078000D01*
X138430000Y-115633500D02*
X142303500Y-115633500D01*
X137922000Y-115125500D02*
X138430000Y-115633500D01*
X132016500Y-115125500D02*
X137922000Y-115125500D01*
X131445000Y-115697000D02*
X132016500Y-115125500D01*
X131445000Y-120015000D02*
X131953000Y-120015000D01*
X131953000Y-120015000D02*
X133286500Y-121348500D01*
X133286500Y-121348500D02*
X137477500Y-121348500D01*
X137477500Y-121348500D02*
X138938000Y-122809000D01*
X138938000Y-122809000D02*
X138938000Y-123698000D01*
X138938000Y-123698000D02*
X139700000Y-124460000D01*
X139700000Y-124460000D02*
X140970000Y-124460000D01*
X131445000Y-122555000D02*
X131635500Y-122555000D01*
X131635500Y-122555000D02*
X132969000Y-123888500D01*
X132969000Y-123888500D02*
X137096500Y-123888500D01*
X137096500Y-123888500D02*
X138620500Y-125412500D01*
X138620500Y-125412500D02*
X138620500Y-126492000D01*
X138620500Y-126492000D02*
X139128500Y-127000000D01*
X139128500Y-127000000D02*
X140970000Y-127000000D01*
D17*
X127254000Y-132588000D02*
X127254000Y-129286000D01*
X127254000Y-129286000D02*
X131445000Y-125095000D01*
D16*
X131445000Y-125095000D02*
X131445000Y-125730000D01*
D17*
X131445000Y-125730000D02*
X134302500Y-128587500D01*
X137668000Y-129540000D02*
X140970000Y-129540000D01*
X136715500Y-128587500D02*
X137668000Y-129540000D01*
X134302500Y-128587500D02*
X136715500Y-128587500D01*
D18*
X132254000Y-132588000D02*
X135763000Y-132588000D01*
X142875000Y-132715000D02*
X142875000Y-128270000D01*
X135890000Y-132715000D02*
X142875000Y-132715000D01*
D16*
X135763000Y-132588000D02*
X135890000Y-132715000D01*
D18*
X133985000Y-125095000D02*
X135509000Y-125095000D01*
X135509000Y-125095000D02*
X138684000Y-128270000D01*
X138684000Y-128270000D02*
X142684500Y-128270000D01*
X142684500Y-128270000D02*
X143383000Y-127571500D01*
X143383000Y-127571500D02*
X143383000Y-111696500D01*
X143383000Y-111696500D02*
X142557500Y-110871000D01*
X142557500Y-110871000D02*
X141859000Y-110871000D01*
X141859000Y-110871000D02*
X140970000Y-111760000D01*
D19*
G36*
X143383000Y-110097092D02*
X143383000Y-115686666D01*
X143285401Y-115540599D01*
X142840901Y-115096099D01*
X142594339Y-114931352D01*
X142360053Y-114884749D01*
X142371054Y-114868285D01*
X142484093Y-114300000D01*
X142371054Y-113731715D01*
X142049147Y-113249946D01*
X142005223Y-113220597D01*
X142179698Y-113148327D01*
X142358327Y-112969699D01*
X142455000Y-112736310D01*
X142455000Y-112045750D01*
X142296250Y-111887000D01*
X141097000Y-111887000D01*
X141097000Y-111907000D01*
X140843000Y-111907000D01*
X140843000Y-111887000D01*
X139643750Y-111887000D01*
X139485000Y-112045750D01*
X139485000Y-112736310D01*
X139581673Y-112969699D01*
X139760302Y-113148327D01*
X139934777Y-113220597D01*
X139890853Y-113249946D01*
X139697046Y-113540000D01*
X130492500Y-113540000D01*
X130201660Y-113597852D01*
X129955099Y-113762599D01*
X129129599Y-114588099D01*
X128964852Y-114834661D01*
X128907000Y-115125500D01*
X128907000Y-120459500D01*
X128964852Y-120750339D01*
X129129599Y-120996901D01*
X129955099Y-121822401D01*
X130175423Y-121969617D01*
X130048243Y-122275900D01*
X130047758Y-122831661D01*
X130259990Y-123345303D01*
X130652630Y-123738629D01*
X130860512Y-123824949D01*
X130654697Y-123909990D01*
X130261371Y-124302630D01*
X130048243Y-124815900D01*
X130047877Y-125234887D01*
X126625382Y-128657382D01*
X126432671Y-128945794D01*
X126365000Y-129286000D01*
X126365000Y-130940560D01*
X126254000Y-130940560D01*
X126018683Y-130984838D01*
X125802559Y-131123910D01*
X125657569Y-131336110D01*
X125606560Y-131588000D01*
X125606560Y-133588000D01*
X125650838Y-133823317D01*
X125789910Y-134039441D01*
X126002110Y-134184431D01*
X126254000Y-134235440D01*
X128254000Y-134235440D01*
X128489317Y-134191162D01*
X128705441Y-134052090D01*
X128850431Y-133839890D01*
X128870551Y-133740532D01*
X131281073Y-133740532D01*
X131379736Y-134007387D01*
X131989461Y-134233908D01*
X132639460Y-134209856D01*
X133128264Y-134007387D01*
X133226927Y-133740532D01*
X132254000Y-132767605D01*
X131281073Y-133740532D01*
X128870551Y-133740532D01*
X128901440Y-133588000D01*
X128901440Y-132323461D01*
X130608092Y-132323461D01*
X130632144Y-132973460D01*
X130834613Y-133462264D01*
X131101468Y-133560927D01*
X132074395Y-132588000D01*
X132433605Y-132588000D01*
X133406532Y-133560927D01*
X133673387Y-133462264D01*
X133899908Y-132852539D01*
X133875856Y-132202540D01*
X133673387Y-131713736D01*
X133406532Y-131615073D01*
X132433605Y-132588000D01*
X132074395Y-132588000D01*
X131101468Y-131615073D01*
X130834613Y-131713736D01*
X130608092Y-132323461D01*
X128901440Y-132323461D01*
X128901440Y-131588000D01*
X128872740Y-131435468D01*
X131281073Y-131435468D01*
X132254000Y-132408395D01*
X133226927Y-131435468D01*
X133128264Y-131168613D01*
X132518539Y-130942092D01*
X131868540Y-130966144D01*
X131379736Y-131168613D01*
X131281073Y-131435468D01*
X128872740Y-131435468D01*
X128857162Y-131352683D01*
X128718090Y-131136559D01*
X128505890Y-130991569D01*
X128254000Y-130940560D01*
X128143000Y-130940560D01*
X128143000Y-129654236D01*
X131127500Y-126669736D01*
X133673882Y-129216118D01*
X133962294Y-129408829D01*
X134302500Y-129476500D01*
X136347264Y-129476500D01*
X137039382Y-130168618D01*
X137327794Y-130361329D01*
X137668000Y-130429000D01*
X139783240Y-130429000D01*
X139890853Y-130590054D01*
X140372622Y-130911961D01*
X140940907Y-131025000D01*
X140999093Y-131025000D01*
X141567378Y-130911961D01*
X142049147Y-130590054D01*
X142371054Y-130108285D01*
X142484093Y-129540000D01*
X142371054Y-128971715D01*
X142049147Y-128489946D01*
X141719974Y-128270000D01*
X142049147Y-128050054D01*
X142371054Y-127568285D01*
X142484093Y-127000000D01*
X142371054Y-126431715D01*
X142049147Y-125949946D01*
X141719974Y-125730000D01*
X142049147Y-125510054D01*
X142371054Y-125028285D01*
X142484093Y-124460000D01*
X142371054Y-123891715D01*
X142049147Y-123409946D01*
X141719974Y-123190000D01*
X142049147Y-122970054D01*
X142371054Y-122488285D01*
X142484093Y-121920000D01*
X142411210Y-121553592D01*
X143285401Y-120679401D01*
X143383000Y-120533334D01*
X143383000Y-134377908D01*
X143007954Y-134752954D01*
X143007952Y-134752957D01*
X140727908Y-137033000D01*
X139065000Y-137033000D01*
X139015590Y-137043006D01*
X138975197Y-137070197D01*
X138934420Y-137110974D01*
X138793295Y-137139046D01*
X138562954Y-137292954D01*
X136917908Y-138938000D01*
X125337092Y-138938000D01*
X119247046Y-132847954D01*
X119016705Y-132694046D01*
X118875580Y-132665974D01*
X118834803Y-132625197D01*
X118792789Y-132597334D01*
X118745000Y-132588000D01*
X108712000Y-132588000D01*
X108712000Y-110783690D01*
X139485000Y-110783690D01*
X139485000Y-111474250D01*
X139643750Y-111633000D01*
X140843000Y-111633000D01*
X140843000Y-110433750D01*
X141097000Y-110433750D01*
X141097000Y-111633000D01*
X142296250Y-111633000D01*
X142455000Y-111474250D01*
X142455000Y-110783690D01*
X142358327Y-110550301D01*
X142179698Y-110371673D01*
X141946309Y-110275000D01*
X141255750Y-110275000D01*
X141097000Y-110433750D01*
X140843000Y-110433750D01*
X140684250Y-110275000D01*
X139993691Y-110275000D01*
X139760302Y-110371673D01*
X139581673Y-110550301D01*
X139485000Y-110783690D01*
X108712000Y-110783690D01*
X108712000Y-109982000D01*
X143267908Y-109982000D01*
X143383000Y-110097092D01*
X143383000Y-110097092D01*
G37*
X143383000Y-110097092D02*
X143383000Y-115686666D01*
X143285401Y-115540599D01*
X142840901Y-115096099D01*
X142594339Y-114931352D01*
X142360053Y-114884749D01*
X142371054Y-114868285D01*
X142484093Y-114300000D01*
X142371054Y-113731715D01*
X142049147Y-113249946D01*
X142005223Y-113220597D01*
X142179698Y-113148327D01*
X142358327Y-112969699D01*
X142455000Y-112736310D01*
X142455000Y-112045750D01*
X142296250Y-111887000D01*
X141097000Y-111887000D01*
X141097000Y-111907000D01*
X140843000Y-111907000D01*
X140843000Y-111887000D01*
X139643750Y-111887000D01*
X139485000Y-112045750D01*
X139485000Y-112736310D01*
X139581673Y-112969699D01*
X139760302Y-113148327D01*
X139934777Y-113220597D01*
X139890853Y-113249946D01*
X139697046Y-113540000D01*
X130492500Y-113540000D01*
X130201660Y-113597852D01*
X129955099Y-113762599D01*
X129129599Y-114588099D01*
X128964852Y-114834661D01*
X128907000Y-115125500D01*
X128907000Y-120459500D01*
X128964852Y-120750339D01*
X129129599Y-120996901D01*
X129955099Y-121822401D01*
X130175423Y-121969617D01*
X130048243Y-122275900D01*
X130047758Y-122831661D01*
X130259990Y-123345303D01*
X130652630Y-123738629D01*
X130860512Y-123824949D01*
X130654697Y-123909990D01*
X130261371Y-124302630D01*
X130048243Y-124815900D01*
X130047877Y-125234887D01*
X126625382Y-128657382D01*
X126432671Y-128945794D01*
X126365000Y-129286000D01*
X126365000Y-130940560D01*
X126254000Y-130940560D01*
X126018683Y-130984838D01*
X125802559Y-131123910D01*
X125657569Y-131336110D01*
X125606560Y-131588000D01*
X125606560Y-133588000D01*
X125650838Y-133823317D01*
X125789910Y-134039441D01*
X126002110Y-134184431D01*
X126254000Y-134235440D01*
X128254000Y-134235440D01*
X128489317Y-134191162D01*
X128705441Y-134052090D01*
X128850431Y-133839890D01*
X128870551Y-133740532D01*
X131281073Y-133740532D01*
X131379736Y-134007387D01*
X131989461Y-134233908D01*
X132639460Y-134209856D01*
X133128264Y-134007387D01*
X133226927Y-133740532D01*
X132254000Y-132767605D01*
X131281073Y-133740532D01*
X128870551Y-133740532D01*
X128901440Y-133588000D01*
X128901440Y-132323461D01*
X130608092Y-132323461D01*
X130632144Y-132973460D01*
X130834613Y-133462264D01*
X131101468Y-133560927D01*
X132074395Y-132588000D01*
X132433605Y-132588000D01*
X133406532Y-133560927D01*
X133673387Y-133462264D01*
X133899908Y-132852539D01*
X133875856Y-132202540D01*
X133673387Y-131713736D01*
X133406532Y-131615073D01*
X132433605Y-132588000D01*
X132074395Y-132588000D01*
X131101468Y-131615073D01*
X130834613Y-131713736D01*
X130608092Y-132323461D01*
X128901440Y-132323461D01*
X128901440Y-131588000D01*
X128872740Y-131435468D01*
X131281073Y-131435468D01*
X132254000Y-132408395D01*
X133226927Y-131435468D01*
X133128264Y-131168613D01*
X132518539Y-130942092D01*
X131868540Y-130966144D01*
X131379736Y-131168613D01*
X131281073Y-131435468D01*
X128872740Y-131435468D01*
X128857162Y-131352683D01*
X128718090Y-131136559D01*
X128505890Y-130991569D01*
X128254000Y-130940560D01*
X128143000Y-130940560D01*
X128143000Y-129654236D01*
X131127500Y-126669736D01*
X133673882Y-129216118D01*
X133962294Y-129408829D01*
X134302500Y-129476500D01*
X136347264Y-129476500D01*
X137039382Y-130168618D01*
X137327794Y-130361329D01*
X137668000Y-130429000D01*
X139783240Y-130429000D01*
X139890853Y-130590054D01*
X140372622Y-130911961D01*
X140940907Y-131025000D01*
X140999093Y-131025000D01*
X141567378Y-130911961D01*
X142049147Y-130590054D01*
X142371054Y-130108285D01*
X142484093Y-129540000D01*
X142371054Y-128971715D01*
X142049147Y-128489946D01*
X141719974Y-128270000D01*
X142049147Y-128050054D01*
X142371054Y-127568285D01*
X142484093Y-127000000D01*
X142371054Y-126431715D01*
X142049147Y-125949946D01*
X141719974Y-125730000D01*
X142049147Y-125510054D01*
X142371054Y-125028285D01*
X142484093Y-124460000D01*
X142371054Y-123891715D01*
X142049147Y-123409946D01*
X141719974Y-123190000D01*
X142049147Y-122970054D01*
X142371054Y-122488285D01*
X142484093Y-121920000D01*
X142411210Y-121553592D01*
X143285401Y-120679401D01*
X143383000Y-120533334D01*
X143383000Y-134377908D01*
X143007954Y-134752954D01*
X143007952Y-134752957D01*
X140727908Y-137033000D01*
X139065000Y-137033000D01*
X139015590Y-137043006D01*
X138975197Y-137070197D01*
X138934420Y-137110974D01*
X138793295Y-137139046D01*
X138562954Y-137292954D01*
X136917908Y-138938000D01*
X125337092Y-138938000D01*
X119247046Y-132847954D01*
X119016705Y-132694046D01*
X118875580Y-132665974D01*
X118834803Y-132625197D01*
X118792789Y-132597334D01*
X118745000Y-132588000D01*
X108712000Y-132588000D01*
X108712000Y-110783690D01*
X139485000Y-110783690D01*
X139485000Y-111474250D01*
X139643750Y-111633000D01*
X140843000Y-111633000D01*
X140843000Y-110433750D01*
X141097000Y-110433750D01*
X141097000Y-111633000D01*
X142296250Y-111633000D01*
X142455000Y-111474250D01*
X142455000Y-110783690D01*
X142358327Y-110550301D01*
X142179698Y-110371673D01*
X141946309Y-110275000D01*
X141255750Y-110275000D01*
X141097000Y-110433750D01*
X140843000Y-110433750D01*
X140684250Y-110275000D01*
X139993691Y-110275000D01*
X139760302Y-110371673D01*
X139581673Y-110550301D01*
X139485000Y-110783690D01*
X108712000Y-110783690D01*
X108712000Y-109982000D01*
X143267908Y-109982000D01*
X143383000Y-110097092D01*
G36*
X137860500Y-125727302D02*
X137860500Y-126492000D01*
X137918352Y-126782839D01*
X138083099Y-127029401D01*
X138591099Y-127537401D01*
X138837661Y-127702148D01*
X139128500Y-127760000D01*
X139697046Y-127760000D01*
X139890853Y-128050054D01*
X140220026Y-128270000D01*
X139890853Y-128489946D01*
X139783240Y-128651000D01*
X138036236Y-128651000D01*
X137344118Y-127958882D01*
X137055706Y-127766171D01*
X136715500Y-127698500D01*
X134670736Y-127698500D01*
X133309476Y-126337240D01*
X133777302Y-126504144D01*
X134332368Y-126476362D01*
X134716143Y-126317397D01*
X134785608Y-126075213D01*
X133985000Y-125274605D01*
X133970858Y-125288748D01*
X133791253Y-125109143D01*
X133805395Y-125095000D01*
X133791253Y-125080858D01*
X133970858Y-124901253D01*
X133985000Y-124915395D01*
X133999143Y-124901253D01*
X134178748Y-125080858D01*
X134164605Y-125095000D01*
X134965213Y-125895608D01*
X135207397Y-125826143D01*
X135394144Y-125302698D01*
X135366362Y-124747632D01*
X135325300Y-124648500D01*
X136781698Y-124648500D01*
X137860500Y-125727302D01*
X137860500Y-125727302D01*
G37*
X137860500Y-125727302D02*
X137860500Y-126492000D01*
X137918352Y-126782839D01*
X138083099Y-127029401D01*
X138591099Y-127537401D01*
X138837661Y-127702148D01*
X139128500Y-127760000D01*
X139697046Y-127760000D01*
X139890853Y-128050054D01*
X140220026Y-128270000D01*
X139890853Y-128489946D01*
X139783240Y-128651000D01*
X138036236Y-128651000D01*
X137344118Y-127958882D01*
X137055706Y-127766171D01*
X136715500Y-127698500D01*
X134670736Y-127698500D01*
X133309476Y-126337240D01*
X133777302Y-126504144D01*
X134332368Y-126476362D01*
X134716143Y-126317397D01*
X134785608Y-126075213D01*
X133985000Y-125274605D01*
X133970858Y-125288748D01*
X133791253Y-125109143D01*
X133805395Y-125095000D01*
X133791253Y-125080858D01*
X133970858Y-124901253D01*
X133985000Y-124915395D01*
X133999143Y-124901253D01*
X134178748Y-125080858D01*
X134164605Y-125095000D01*
X134965213Y-125895608D01*
X135207397Y-125826143D01*
X135394144Y-125302698D01*
X135366362Y-124747632D01*
X135325300Y-124648500D01*
X136781698Y-124648500D01*
X137860500Y-125727302D01*
M02*
